<svg version="1.0" xmlns="http://www.w3.org/2000/svg" width="113.333" height="113.333" viewBox="0 0 85 85"><path d="M30.8 6C21.7 8.8 12.9 16 7.2 25.1c-8.6 14-9.2 35-1.6 50.2 2.8 5.5 4 5.6 10.9 1.6 5.9-3.5 3.5-10.1-2.6-6.9-2.6 1.5-3.3.8-5.4-5.4-2.4-7.2-2-24.6.6-26.2.5-.2 2.1.1 3.6.9 3.7 1.9 5.3 1.2 5.3-2.4 0-2.2-.7-3.2-3-4.4-2.7-1.4-2.9-1.8-1.9-3.7C16.9 21.7 30.5 12 36.7 12c2 0 2.3.5 2.3 3.4 0 7 6.2 7.3 6.8.2.4-4.1 1.3-4.4 7.7-2.1 5.4 2 7.2 1.9 8-.4 1.1-3.4-.6-5.1-7.4-7.1-7.7-2.4-15.5-2.4-23.3 0z"/><path d="M57.3 26.1C34.2 44 31.7 46.8 32.7 53.3c1.5 9.7 12 12.9 17.7 5.4C55.1 52.4 73 22.7 73 21c0-1.6-1.8-4-3.1-4-.4 0-6.1 4.1-12.6 9.1zm-5.7 18c-5.8 9.4-8.2 12-10 11.3-2.1-.8-3-4.2-1.5-6 .6-.8 4.2-3.8 7.8-6.7 3.6-2.8 6.8-5.6 7-6 .1-.5.5-.6.8-.4.2.3-1.6 3.8-4.1 7.8zM76 31c-1.2.8-1.2 1.8.3 7.7 2.8 10.5 2.4 21-1 29-1.1 2.7-1.8 3.3-3.1 2.7-.9-.4-2.8-.7-4.2-.8-2-.1-2.6.4-2.8 2.5-.3 2.2.4 3.1 4.2 5.3 2.4 1.4 5.2 2.6 6 2.6 1.9 0 5.9-7.7 7.9-15.3 2.6-9.8 1.5-25.7-2.2-32.5-1.3-2.4-2.7-2.7-5.1-1.2z"/></svg>