<?xml version="1.0" encoding="utf-8"?><svg width="30" height="24" xmlns="http://www.w3.org/2000/svg" viewBox="0 0 30 24"><path d="M29.999.847L29.07 3.34H26.66L22.317 18.3H5.767L0 4.586h21.015l-.705 2.493H3.759l3.671 8.726h13.035l4.29-14.96H30zM10.624 19.546a1.873 1.873 0 00-1.875 1.87c0 1.033.84 1.87 1.875 1.87a1.872 1.872 0 001.875-1.87c0-1.033-.84-1.87-1.875-1.87zm8.625-8.726l-2.375 8.726a1.872 1.872 0 00-1.875 1.87c0 1.033.84 1.87 1.875 1.87a1.872 1.872 0 001.875-1.87c0-1.033-.84-1.87-1.875-1.87l2.375-8.726z"/></svg>