<?xml version="1.0" standalone="no"?><svg version="1.0" xmlns="http://www.w3.org/2000/svg" width="682.667" height="682.667" viewBox="0 0 512 512"><path d="M12.5 66.4C6.6 69.1 4.8 71 2.1 77c-2.6 5.6-2.6 11.3-.2 16.5 4.6 9.9 13.9 14.6 24.5 12.3 6.9-1.5 13.9-8.5 15.4-15.4 2.3-10.6-2.4-19.9-12.3-24.5-5.4-2.5-11-2.4-17 .5zM140.5 66.4c-2.7 1.3-5.8 3.2-6.7 4.2-2.9 3.3-5.8 10.7-5.8 14.9 0 7.9 6.5 17.1 13.9 19.7 5.3 1.9 350.9 1.9 356.2 0 7.4-2.6 13.9-11.8 13.9-19.7 0-4.2-2.9-11.6-5.8-14.9-.9-1-3.9-2.9-6.7-4.2l-5-2.4h-349l-5 2.4zM12.5 236.8c-21.6 10.1-12.8 42 11 40 19.4-1.6 25.8-26.9 9.7-38.2-5.5-3.9-14.6-4.7-20.7-1.8zM140.5 236.9c-7.2 3.2-12.5 11.3-12.5 19.1 0 7.8 5.3 15.9 12.5 19.1 3.8 1.8 11.9 1.9 179.5 1.9s175.7-.1 179.5-1.9c7.2-3.2 12.5-11.3 12.5-19.1 0-7.8-5.3-15.9-12.5-19.1-3.8-1.8-11.9-1.9-179.5-1.9s-175.7.1-179.5 1.9zM15.7 406.4c-6.6 1.8-10.4 5.2-13.7 12.1-2.5 5.2-2.5 10.9.1 16.5 2.7 6 4.5 7.9 10.4 10.6 6 2.9 11.6 3 17 .5 7-3.2 10.8-7.9 12.4-15.1 3.4-15.3-10.8-28.7-26.2-24.6zM143.7 406.4c-6.6 1.8-10.4 5.2-13.7 12.1-2.5 5.2-2.5 10.9.1 16.5 2.7 6 4.5 7.9 10.4 10.6l5 2.4h349l5-2.4c5.9-2.7 7.7-4.6 10.4-10.6 3.7-8.1 2-16.9-4.5-23.4-6.6-6.6 7.9-6.1-183.4-6.3-138.7-.1-174.5.1-178.3 1.1z"/></svg>