<?xml version="1.0" standalone="no"?>
<!DOCTYPE svg PUBLIC "-//W3C//DTD SVG 20010904//EN"
 "http://www.w3.org/TR/2001/REC-SVG-20010904/DTD/svg10.dtd">
<svg version="1.0" xmlns="http://www.w3.org/2000/svg"
 width="512.000000pt" height="512.000000pt" viewBox="0 0 512.000000 512.000000"
 preserveAspectRatio="xMidYMid meet">

<g transform="translate(0.000000,512.000000) scale(0.100000,-0.100000)">
<path d="M125 4456 c-59 -27 -77 -46 -104 -106 -26 -56 -26 -113 -2 -165 46
-99 139 -146 245 -123 69 15 139 85 154 154 23 106 -24 199 -123 245 -54 25
-110 24 -170 -5z"/>
<path d="M1405 4456 c-27 -13 -58 -32 -67 -42 -29 -33 -58 -107 -58 -149 0
-79 65 -171 139 -197 53 -19 3509 -19 3562 0 74 26 139 118 139 197 0 42 -29
116 -58 149 -9 10 -39 29 -67 42 l-50 24 -1745 0 -1745 0 -50 -24z"/>
<path d="M125 2752 c-216 -101 -128 -420 110 -400 194 16 258 269 97 382 -55
39 -146 47 -207 18z"/>
<path d="M1405 2751 c-72 -32 -125 -113 -125 -191 0 -78 53 -159 125 -191 38
-18 119 -19 1795 -19 1676 0 1757 1 1795 19 72 32 125 113 125 191 0 78 -53
159 -125 191 -38 18 -119 19 -1795 19 -1676 0 -1757 -1 -1795 -19z"/>
<path d="M157 1056 c-66 -18 -104 -52 -137 -121 -25 -52 -25 -109 1 -165 27
-60 45 -79 104 -106 60 -29 116 -30 170 -5 70 32 108 79 124 151 34 153 -108
287 -262 246z"/>
<path d="M1437 1056 c-66 -18 -104 -52 -137 -121 -25 -52 -25 -109 1 -165 27
-60 45 -79 104 -106 l50 -24 1745 0 1745 0 50 24 c59 27 77 46 104 106 37 81
20 169 -45 234 -66 66 79 61 -1834 63 -1387 1 -1745 -1 -1783 -11z"/>
</g>
</svg>
