<?xml version="1.0" standalone="no"?>
<!DOCTYPE svg PUBLIC "-//W3C//DTD SVG 20010904//EN"
 "http://www.w3.org/TR/2001/REC-SVG-20010904/DTD/svg10.dtd">
<svg version="1.0" xmlns="http://www.w3.org/2000/svg"
 width="85.000000pt" height="85.000000pt" viewBox="0 0 85.000000 85.000000"
 preserveAspectRatio="xMidYMid meet">
<metadata>
Created by potrace 1.11, written by Peter Selinger 2001-2013
</metadata>
<g transform="translate(0.000000,85.000000) scale(0.100000,-0.100000)"
fill="#000000" stroke="none">
<path d="M308 790 c-91 -28 -179 -100 -236 -191 -86 -140 -92 -350 -16 -502
28 -55 40 -56 109 -16 59 35 35 101 -26 69 -26 -15 -33 -8 -54 54 -24 72 -20
246 6 262 5 2 21 -1 36 -9 37 -19 53 -12 53 24 0 22 -7 32 -30 44 -27 14 -29
18 -19 37 38 71 174 168 236 168 20 0 23 -5 23 -34 0 -70 62 -73 68 -2 4 41
13 44 77 21 54 -20 72 -19 80 4 11 34 -6 51 -74 71 -77 24 -155 24 -233 0z"/>
<path d="M573 589 c-231 -179 -256 -207 -246 -272 15 -97 120 -129 177 -54 47
63 226 360 226 377 0 16 -18 40 -31 40 -4 0 -61 -41 -126 -91z m-57 -180 c-58
-94 -82 -120 -100 -113 -21 8 -30 42 -15 60 6 8 42 38 78 67 36 28 68 56 70
60 1 5 5 6 8 4 2 -3 -16 -38 -41 -78z"/>
<path d="M760 540 c-12 -8 -12 -18 3 -77 28 -105 24 -210 -10 -290 -11 -27
-18 -33 -31 -27 -9 4 -28 7 -42 8 -20 1 -26 -4 -28 -25 -3 -22 4 -31 42 -53
24 -14 52 -26 60 -26 19 0 59 77 79 153 26 98 15 257 -22 325 -13 24 -27 27
-51 12z"/>
</g>
</svg>
