<?xml version="1.0" encoding="utf-8"?><svg viewBox="0 0 682.667 682.667" xmlns="http://www.w3.org/2000/svg" xmlns:xlink="http://www.w3.org/1999/xlink"><style>:root>svg{display:none}:root>svg:target{display:block}</style><svg viewBox="0 0 12 8" id="arrow-down-filter" xmlns="http://www.w3.org/2000/svg"><path fill-rule="evenodd" clip-rule="evenodd" d="M10.6 0L6 4.6 1.4 0 0 1.4l6 6 6-6L10.6 0z"/></svg><svg viewBox="0 0 60 40" id="cart-fill" xmlns="http://www.w3.org/2000/svg"><path d="M0 10C0 4.477 4.477 0 10 0h50v40H0V10z"/><path d="M44 10l-.929 2.5H40.66l-4.342 15h-16.55L14 13.75h21.015l-.705 2.5H17.76L21.431 25h13.035l4.29-15H44zM24.625 28.75a1.876 1.876 0 10.001 3.751 1.876 1.876 0 00-.001-3.751zM33.25 20l-2.375 8.75a1.875 1.875 0 100 3.75 1.875 1.875 0 000-3.75L33.25 20z"/></svg><svg viewBox="0 0 30 24" id="cart-icon" xmlns="http://www.w3.org/2000/svg"><path d="M29.999.847L29.07 3.34H26.66L22.317 18.3H5.767L0 4.586h21.015l-.705 2.493H3.759l3.671 8.726h13.035l4.29-14.96H30zM10.624 19.546a1.873 1.873 0 00-1.875 1.87c0 1.033.84 1.87 1.875 1.87a1.872 1.872 0 001.875-1.87c0-1.033-.84-1.87-1.875-1.87zm8.625-8.726l-2.375 8.726a1.872 1.872 0 00-1.875 1.87c0 1.033.84 1.87 1.875 1.87a1.872 1.872 0 001.875-1.87c0-1.033-.84-1.87-1.875-1.87l2.375-8.726z"/></svg><svg version="1.0" viewBox="0 0 512 512" id="catalog__filter-mobile-icon" xmlns="http://www.w3.org/2000/svg"><path d="M10 58.2l.1 48.3L107.5 209 205 311.5v93.7c0 51.6.2 93.8.5 93.8s23.2-14.2 51-31.6l50.5-31.5V311.5L404.5 209l97.4-102.5.1-48.3V10H10v48.2zm471 6.6v33.8l-96.7 101.8-96.8 101.9-.5 61.1-.5 61.1-29.9 18.7c-16.5 10.4-30.3 18.8-30.8 18.8-.4 0-.8-35.9-.9-79.8v-79.7l-97-101.9L31 98.6V31h450v33.8z"/></svg><svg viewBox="0 0 23 21" id="catalog__grid-icon" xmlns="http://www.w3.org/2000/svg"><path d="M1 1h21v19H1z"/><path d="M7 6h2v2H7zM7 13h2v2H7zM14 6h2v2h-2zM14 13h2v2h-2z"/></svg><svg viewBox="0 0 25 19" id="catalog__line-icon" xmlns="http://www.w3.org/2000/svg"><rect x="6" width="19" height="3" rx="1.5"/><rect x="6" y="8" width="19" height="3" rx="1.5"/><rect x="6" y="16" width="19" height="3" rx="1.5"/><rect width="3" height="3" rx="1.5"/><rect y="8" width="3" height="3" rx="1.5"/><rect y="16" width="3" height="3" rx="1.5"/></svg><svg version="1.0" viewBox="0 0 512 512" id="catalog__line-icon-copy" xmlns="http://www.w3.org/2000/svg"><path d="M12.5 66.4C6.6 69.1 4.8 71 2.1 77c-2.6 5.6-2.6 11.3-.2 16.5 4.6 9.9 13.9 14.6 24.5 12.3 6.9-1.5 13.9-8.5 15.4-15.4 2.3-10.6-2.4-19.9-12.3-24.5-5.4-2.5-11-2.4-17 .5zM140.5 66.4c-2.7 1.3-5.8 3.2-6.7 4.2-2.9 3.3-5.8 10.7-5.8 14.9 0 7.9 6.5 17.1 13.9 19.7 5.3 1.9 350.9 1.9 356.2 0 7.4-2.6 13.9-11.8 13.9-19.7 0-4.2-2.9-11.6-5.8-14.9-.9-1-3.9-2.9-6.7-4.2l-5-2.4h-349l-5 2.4zM12.5 236.8c-21.6 10.1-12.8 42 11 40 19.4-1.6 25.8-26.9 9.7-38.2-5.5-3.9-14.6-4.7-20.7-1.8zM140.5 236.9c-7.2 3.2-12.5 11.3-12.5 19.1 0 7.8 5.3 15.9 12.5 19.1 3.8 1.8 11.9 1.9 179.5 1.9s175.7-.1 179.5-1.9c7.2-3.2 12.5-11.3 12.5-19.1 0-7.8-5.3-15.9-12.5-19.1-3.8-1.8-11.9-1.9-179.5-1.9s-175.7.1-179.5 1.9zM15.7 406.4c-6.6 1.8-10.4 5.2-13.7 12.1-2.5 5.2-2.5 10.9.1 16.5 2.7 6 4.5 7.9 10.4 10.6 6 2.9 11.6 3 17 .5 7-3.2 10.8-7.9 12.4-15.1 3.4-15.3-10.8-28.7-26.2-24.6zM143.7 406.4c-6.6 1.8-10.4 5.2-13.7 12.1-2.5 5.2-2.5 10.9.1 16.5 2.7 6 4.5 7.9 10.4 10.6l5 2.4h349l5-2.4c5.9-2.7 7.7-4.6 10.4-10.6 3.7-8.1 2-16.9-4.5-23.4-6.6-6.6 7.9-6.1-183.4-6.3-138.7-.1-174.5.1-178.3 1.1z"/></svg><svg viewBox="0 0 30 30" id="facebook-icon" xmlns="http://www.w3.org/2000/svg"><path d="M17.419 29.805zM17.719 29.753c-.06.012-.12.022-.18.032.06-.01.12-.02.18-.032zM16.707 29.903zM16.995 29.867zM18.127 29.672zM19.14 29.42c-.042.013-.085.024-.127.036l.127-.035zM18.834 29.505l-.14.036.14-.037zM18.433 29.605l-.148.033.148-.033zM16.262 29.947zM30 15c0-8.283-6.717-15-15-15C6.717 0 0 6.717 0 15c0 8.283 6.717 15 15 15l.264-.003V18.32H12.04v-3.756h3.223V11.8c0-3.205 1.956-4.95 4.816-4.95 1.369 0 2.546.103 2.889.148v3.35h-1.972c-1.555 0-1.857.74-1.857 1.824v2.392h3.72l-.485 3.756H19.14v11.1C25.41 27.623 30 21.848 30 15zM15.991 29.967zM15.513 29.99z"/></svg><svg viewBox="0 0 34 28" id="humburger__icon" xmlns="http://www.w3.org/2000/svg"><rect y=".832" width="33.673" height="3" rx="1.5"/><rect y="12.832" width="33.673" height="3" rx="1.5"/><rect y="24.832" width="33.673" height="3" rx="1.5"/></svg><svg viewBox="0 0 30 30" id="instagram-icon" xmlns="http://www.w3.org/2000/svg"><g clip-path="url(#jclip0)"><path d="M15.005 7.297a7.697 7.697 0 00-7.698 7.698 7.697 7.697 0 007.698 7.697 7.697 7.697 0 007.697-7.697 7.697 7.697 0 00-7.697-7.698zm0 12.694a4.995 4.995 0 01-4.997-4.996 4.995 4.995 0 014.997-4.996A4.995 4.995 0 0120 14.995a4.994 4.994 0 01-4.996 4.996z"/><path d="M21.185.095c-2.76-.128-9.596-.122-12.359 0C6.4.21 4.257.795 2.531 2.522-.354 5.407.015 9.294.015 14.996c0 5.835-.325 9.632 2.516 12.473 2.896 2.895 6.84 2.516 12.474 2.516 5.78 0 7.775.004 9.818-.787 2.78-1.079 4.877-3.563 5.082-8.024.13-2.761.122-9.596 0-12.359-.248-5.266-3.074-8.46-8.72-8.72zm4.369 25.466c-1.892 1.89-4.515 1.722-10.585 1.722-6.25 0-8.757.092-10.585-1.741-2.107-2.097-1.725-5.463-1.725-10.567 0-6.906-.71-11.88 6.222-12.235 1.592-.056 2.061-.075 6.07-.075l.056.038c6.662 0 11.888-.698 12.202 6.232.07 1.582.087 2.057.087 6.06-.001 6.177.116 8.698-1.742 10.566z"/><path d="M23.008 8.792a1.799 1.799 0 100-3.597 1.799 1.799 0 000 3.597z"/></g><defs><clipPath id="jclip0"><path d="M0 0h30v30H0z"/></clipPath></defs></svg><svg viewBox="0 0 512 512" id="list" xmlns="http://www.w3.org/2000/svg"><path d="M192 32h320v64H192V32zm0 192h320v64H192v-64zm0 192h320v64H192v-64zM0 64C0 28.654 28.654 0 64 0s64 28.654 64 64c0 35.346-28.654 64-64 64S0 99.346 0 64zm0 192c0-35.346 28.654-64 64-64s64 28.654 64 64c0 35.346-28.654 64-64 64S0 291.346 0 256zm0 192c0-35.346 28.654-64 64-64s64 28.654 64 64c0 35.346-28.654 64-64 64S0 483.346 0 448z"/></svg><svg viewBox="0 0 18 17" id="mobile-menu__delivery-icon" xmlns="http://www.w3.org/2000/svg"><path d="M11.17 3.143h5.901v12.021c0 .518-.465.836-.97.836H1.893C1.388 16 1 15.602 1 15.084V3.143h5.823"/><path d="M11.385 3.143h5.632c.038 0 .077-.032.038-.064L14.958 1H3.113L1.016 3.079c-.039.032 0 .064.039.064h5.631"/><path d="M11.714 3.143L10.782 1h-3.4L6.357 3.143M11.714 3.143v4.286l-2.61-1.506-2.747 1.506V3.143M10.986 11.714H7.122c-.443 0-.765-.438-.765-.925v-.292c0-.536.362-.926.765-.926h3.824c.443 0 .765.439.765.926v.292c.04.536-.322.925-.725.925z"/></svg><svg viewBox="0 0 17 17" id="mobile-menu__sale-icon" xmlns="http://www.w3.org/2000/svg"><path d="M6.142 1.983c.595.677.892 1.593.892 2.748 0 1.155-.297 2.075-.892 2.758-.595.684-1.391 1.026-2.39 1.026-.997 0-1.793-.342-2.388-1.026C.776 6.806.482 5.886.482 4.731s.294-2.071.882-2.748C1.958 1.299 2.754.958 3.753.958c.998 0 1.794.341 2.39 1.025zm-2.39 4.922c.384 0 .681-.192.893-.574.219-.39.328-.923.328-1.6 0-.684-.11-1.217-.328-1.6-.212-.39-.51-.584-.892-.584-.376 0-.673.195-.892.584-.212.383-.318.916-.318 1.6 0 .677.106 1.21.318 1.6.219.382.516.574.892.574zM3.959 16H1.723l5.732-7.844 5.085-6.952h2.215L9.177 8.843 3.958 16zm11.156-6.347c.595.683.892 1.603.892 2.758s-.297 2.075-.892 2.758c-.595.677-1.39 1.016-2.389 1.016-.998 0-1.794-.339-2.39-1.016-.587-.683-.88-1.603-.88-2.758s.293-2.075.88-2.758c.596-.684 1.392-1.026 2.39-1.026.998 0 1.795.342 2.39 1.026zM11.833 14c.219.39.516.584.892.584s.673-.195.892-.585c.219-.39.328-.922.328-1.6 0-.676-.11-1.21-.328-1.599-.219-.39-.516-.584-.892-.584s-.673.195-.892.584c-.212.39-.318.923-.318 1.6s.106 1.21.318 1.6z"/></svg><svg viewBox="0 0 18 22" id="mobile-menu__shop-icon" xmlns="http://www.w3.org/2000/svg"><path d="M6.833 13.343a.5.5 0 00-.5.5V19.7a.5.5 0 01-.5.5H1.5a.5.5 0 01-.5-.5V8.087a.5.5 0 01.175-.38l7.5-6.428a.5.5 0 01.65 0l7.5 6.428a.5.5 0 01.175.38V19.7a.5.5 0 01-.5.5h-4.333a.5.5 0 01-.5-.5v-5.857a.5.5 0 00-.5-.5H6.833z"/></svg><svg viewBox="0 0 30 30" id="point-icon" xmlns="http://www.w3.org/2000/svg"><path d="M14.994 0C8.365 0 2.969 5.396 2.969 12.025c0 .755.069 1.516.214 2.258a11.842 11.842 0 00.887 2.774c1.295 3.05 4.144 7.735 10.396 12.754a.854.854 0 001.069 0c6.245-5.018 9.1-9.704 10.396-12.754a11.705 11.705 0 00.887-2.774c.138-.742.214-1.503.214-2.258C27.019 5.396 21.622 0 14.994 0zm10.138 13.987c0 .013-.006.026-.006.038-.006.032-.025.126-.057.27v.013a9.993 9.993 0 01-.698 2.05c-.006.007-.006.02-.012.026-1.176 2.786-3.755 7.037-9.365 11.673-5.61-4.636-8.189-8.887-9.365-11.673-.006-.007-.006-.02-.012-.026a10.651 10.651 0 01-.699-2.05v-.012c-.037-.145-.05-.24-.056-.27 0-.013-.006-.026-.006-.045a10.271 10.271 0 01-.19-1.962c0-5.692 4.636-10.327 10.328-10.327 5.692 0 10.327 4.635 10.327 10.327 0 .666-.063 1.327-.189 1.968z"/><path d="M14.994 4.522c-4.208 0-7.635 3.428-7.635 7.635 0 4.208 3.427 7.635 7.635 7.635 4.207 0 7.635-3.427 7.635-7.635 0-4.207-3.428-7.635-7.635-7.635zm0 13.572a5.944 5.944 0 01-5.937-5.937 5.948 5.948 0 015.937-5.937 5.948 5.948 0 015.937 5.937c0 3.27-2.66 5.937-5.937 5.937z"/></svg><svg viewBox="0 0 62 18" id="price-line" xmlns="http://www.w3.org/2000/svg"><path d="M1.594 16.766L60.405 1.234"/></svg><svg viewBox="0 0 16 17" id="product-page__search" xmlns="http://www.w3.org/2000/svg"><path fill-rule="evenodd" clip-rule="evenodd" d="M6.167 12.561C2.76 12.561 0 9.75 0 6.281 0 2.812 2.76 0 6.167 0c3.405 0 6.166 2.812 6.166 6.28 0 1.49-.509 2.859-1.36 3.936l4.832 4.92c.26.266.26.696 0 .96a.658.658 0 01-.943 0l-4.832-4.92a6.072 6.072 0 01-3.863 1.385zm0-1.358C8.836 11.203 11 8.999 11 6.28S8.836 1.357 6.167 1.357c-2.67 0-4.834 2.204-4.834 4.923s2.164 4.923 4.834 4.923z"/></svg><svg viewBox="0 0 20 28" id="product-page__vote" xmlns="http://www.w3.org/2000/svg"><rect x="16" y="15.771" width="4" height="11.726" rx="2"/><rect x="8" y=".528" width="4" height="26.969" rx="2"/><rect y="9.908" width="4" height="17.588" rx="2"/></svg><svg viewBox="0 0 30 23" id="product__cart-icon" xmlns="http://www.w3.org/2000/svg"><path d="M30 0l-.929 2.5H26.66l-4.343 15H5.77L0 3.75h21.015l-.705 2.5H3.76L7.431 15h13.035l4.29-15H30zM10.625 18.75a1.876 1.876 0 10.001 3.751 1.876 1.876 0 00-.001-3.751zM19.25 10l-2.375 8.75a1.875 1.875 0 100 3.75 1.875 1.875 0 000-3.75L19.25 10z"/></svg><svg viewBox="0 0 24 23" id="product__likes-icon" xmlns="http://www.w3.org/2000/svg"><path d="M12 9.053c.234-1.117 1.547-6.212 5.382-6.212 2.22 0 4.618 1.547 4.618 4.99 0 3.896-3.627 8.447-10 12.594C5.627 16.278 2 11.727 2 7.831c0-3.475 2.369-4.992 4.577-4.992 3.923 0 5.145 5.112 5.423 6.214zM0 7.831c0 4.057 3.06 9.455 12 14.956 8.94-5.501 12-10.9 12-14.956 0-7.94-9.648-9.004-12-3.727C9.662-1.144 0-.154 0 7.83z"/></svg><svg viewBox="0 0 24 23" id="product__likes-icon--active" xmlns="http://www.w3.org/2000/svg"><path d="M12 9.053c.234-1.117 1.547-6.212 5.382-6.212 2.22 0 4.618 1.547 4.618 4.99 0 3.896-3.627 8.447-10 12.594C5.627 16.278 2 11.727 2 7.831c0-3.475 2.369-4.992 4.577-4.992 3.923 0 5.145 5.112 5.423 6.214zM0 7.831c0 4.057 3.06 9.455 12 14.956 8.94-5.501 12-10.9 12-14.956 0-7.94-9.648-9.004-12-3.727C9.662-1.144 0-.154 0 7.83z"/></svg><svg viewBox="0 0 24 24" id="user-icon" xmlns="http://www.w3.org/2000/svg"><path d="M20.822 18.047c-3.439-.792-6.64-1.486-5.09-4.406C20.453 4.753 16.983 0 12.002 0 6.918 0 3.536 4.935 8.268 13.64c1.597 2.938-1.725 3.632-5.09 4.407-3.073.708-3.188 2.23-3.178 4.89l.004.997h23.99l.004-.966c.012-2.68-.092-4.21-3.176-4.921z"/></svg><svg viewBox="0 0 30 30" id="vk-icon" xmlns="http://www.w3.org/2000/svg"><path d="M24.894 16.285c-.485-.613-.346-.885 0-1.433.006-.006 4.01-5.538 4.422-7.415h.003c.205-.684 0-1.187-.991-1.187h-3.28c-.835 0-1.22.431-1.427.914 0 0-1.67 3.997-4.032 6.588-.763.75-1.115.99-1.531.99-.206 0-.524-.24-.524-.925v-6.38c0-.82-.234-1.187-.925-1.187H11.45c-.524 0-.835.383-.835.739 0 .777 1.181.956 1.304 3.144v4.746c0 1.04-.189 1.231-.607 1.231-1.116 0-3.822-4.014-5.426-8.607-.323-.892-.64-1.252-1.48-1.252H1.124C.189 6.251 0 6.682 0 7.165c0 .853 1.115 5.091 5.185 10.691 2.713 3.823 6.532 5.894 10.008 5.894 2.088 0 2.343-.46 2.343-1.251 0-3.653-.189-3.998.858-3.998.485 0 1.32.24 3.27 2.084 2.228 2.186 2.595 3.165 3.842 3.165h3.28c.935 0 1.409-.46 1.136-1.367-.623-1.91-4.838-5.835-5.028-6.098z"/></svg><svg viewBox="0 0 30 30" id="youtube-icon" xmlns="http://www.w3.org/2000/svg"><path d="M13.132 17.81l4.88-2.81-4.88-2.81v5.62z"/><path d="M15 0C6.717 0 0 6.717 0 15c0 8.283 6.717 15 15 15 8.283 0 15-6.717 15-15 0-8.283-6.717-15-15-15zm9.373 15.015s0 3.042-.386 4.51a2.349 2.349 0 01-1.652 1.651c-1.467.387-7.335.387-7.335.387s-5.852 0-7.335-.402a2.349 2.349 0 01-1.652-1.652C5.627 18.057 5.627 15 5.627 15s0-3.042.386-4.509a2.396 2.396 0 011.652-1.667C9.132 8.438 15 8.438 15 8.438s5.868 0 7.334.401c.803.216 1.436.85 1.653 1.652.401 1.467.386 4.524.386 4.524z"/></svg></svg>